# xmcd
#
# Track frame offsets:
#        150
#        15952
#        32940
#        44566
#        57389
#        74507
#        101616
#        118265
#        131978
#        147339
#        175747
#        191556
#        202937
#        213630
#        223169
#        239665
#        265528
#        294732
#        306909
#        335797
#
# Disc length: 4706 seconds
#
# Revision: 0
# Processed by: cddbd v1.5.1PL2 Copyright (c) Steve Scherf et al.
# Submitted via: ExactAudioCopy v0.95b4
#
DISCID=4c126014
DTITLE=Bobby Womack - FREE SOUL. the classic of BOBBY WOMACK
DYEAR=2006
DGENRE=Soul
TTITLE0=Daylight
TTITLE1=Check It Out
TTITLE2=You're Messing Up A Good Thing
TTITLE3=(If You Don't Want My Love) Give It Back
TTITLE4=Across 110th Street
TTITLE5=California Dreamin'
TTITLE6=You're Welcome, Stop On By
TTITLE7=Nobody Wants You When You're Down And Out
TTITLE8=Love Ain't Something You Can Get For Free
TTITLE9=Fact Of Life - He'll Be There When The Sun Goes Down
TTITLE10=Woman's Gotta Have It
TTITLE11=What Is This
TTITLE12=I Left My Heart In San Francisco
TTITLE13=Fly Me To The Moon (In Other Words)
TTITLE14=Across 110th Street [Demo Version]
TTITLE15=Jealous Love
TTITLE16=I Can Understand It
TTITLE17=There's One Thing That Beats Failing
TTITLE18=Where There's A Will, There's A Way
TTITLE19=Harry Hippie
EXTD=
EXTT0=
EXTT1=
EXTT2=
EXTT3=
EXTT4=
EXTT5=
EXTT6=
EXTT7=
EXTT8=
EXTT9=
EXTT10=
EXTT11=
EXTT12=
EXTT13=
EXTT14=
EXTT15=
EXTT16=
EXTT17=
EXTT18=
EXTT19=
PLAYORDER=
